<?xml version="1.0" encoding="utf-8"?>
<!-- Generator: Adobe Illustrator 15.1.0, SVG Export Plug-In . SVG Version: 6.00 Build 0)  -->
<!DOCTYPE svg PUBLIC "-//W3C//DTD SVG 1.1//EN" "http://www.w3.org/Graphics/SVG/1.1/DTD/svg11.dtd">
<svg version="1.1" xmlns="http://www.w3.org/2000/svg" xmlns:xlink="http://www.w3.org/1999/xlink" x="0px" y="0px"
	 width="634.378px" height="931.053px" viewBox="0 0 634.378 931.053" enable-background="new 0 0 634.378 931.053"
	 xml:space="preserve">
<g id="Layer_2">
</g>
<g id="Layer_4">
</g>
<g id="Layer_5">
	<path fill="#BBAEB5" d="M536.333,900.513c0,0,2.5,6,0,10s-5.5,12.5-5.5,12.5l-3,1c0,0,5,0.5,8,0s6-5.5,6-7.5
		S536.333,900.513,536.333,900.513z"/>
	<path fill="#BBAEB5" d="M578.333,910.513c0,0,2,13.5-0.5,15.5s-3.5,4.5-3.5,4.5s2.5,1.5,7.5-0.5s6.5-2,5.5-8s-2-9.5-4-10
		S578.333,910.513,578.333,910.513z"/>
	<path fill="#BBAEB5" d="M619.833,903.513c0,0,3.5,10.5,2.5,12.5s4.5,0.5,4.5,0.5s2-8,0-11.5S619.833,903.513,619.833,903.513z"/>
	<path fill="#BBAEB5" d="M497.215,896.414c-1.693,3.519,0.981,10.064-3.622,14.313c-4.603,4.25-7.271,3.89-7.271,3.89l4.006,3.633
		c0,0,5.337,0.722,8.363-3.647c3.027-4.369,5.33-5.463,4.355-9.343C502.071,901.381,497.215,896.414,497.215,896.414z"/>
	<path fill="#D7D1D8" stroke="#665955" stroke-width="2" stroke-miterlimit="10" d="M229.833,739.513c0,0,28,20.5,34.5,18
		s11-7.5,16.5-13.5s7-13.5,7-13.5l-24-21.238l-34.5,14.238L229.833,739.513"/>
	<path fill="#D7D1D8" stroke="#665955" stroke-width="2" stroke-miterlimit="10" d="M243.833,680.013c0,0-26.5,33.5-27,35.5
		s-3,33.5-1,35.5s13,5.5,13,5.5s9.5-22,15-22.5s11-6,18-7s10.5-1,12.5-1.5s2,19.5,6.5,23s16-6.5,20-9s6-6,6.5-12.5s3-6,3.5-13
		s6-8.5,6-8.5l-10.5-21.5l-27-12.5L243.833,680.013z"/>
	<path fill="#D7D1D8" stroke="#665955" stroke-width="2" stroke-miterlimit="10" d="M493,786.013c1.666,3.333,3.667,13.584,3,18.584
		s1.334,11.29-4,18.624s-10.667,12.312-11.667,15.979s-3.667,10.99,0.333,13.99s8-0.005,11.667,4.328S503,879.182,503,879.182
		l34,4.165c0,0,22.332,12.166,26.666,12.166s18.667,0,18.667,0l47.333-8c0,0,0.001-5.667-3.666-16.667s-13-29.333-15.667-37
		s-6.667-8.999-6.667-17.333s-3-17.667-3-17.667"/>
	<path fill="#D7D1D8" stroke="#665955" stroke-width="2" stroke-miterlimit="10" d="M383.833,717.013c0,0-22,59-18.5,65.5
		s27,23.5,30,27.5s46.334,19.501,46.334,19.501s21.666-6.001,24.666-15.001s-2.5-41-2.5-41l-59-54L383.833,717.013z"/>
	<path fill="#D7D1D8" d="M60,750.846l-29.333,14.333c0,0-4.666,8.333-3.333,11s-0.334,29-0.334,29l6.334,6L81,806.513l18.667,3.333
		L153,794.179l-5.333-6.333l-81.667-39L60,750.846z"/>
	<path fill="#949089" stroke="#665955" stroke-width="4" stroke-miterlimit="10" d="M169.333,212.513c0,0-50,79-64,117
		s-24,76-22,120s-5,48-8,63s0,51,7,64s7,9,4,27s6,52,3,71s14,34-5,49s-22,19-22,19s25,30,40,30s46,16,50,18s16-3,16-3l9-12
		c0,0,0-21,2-58s-11-29-3-65s4-43,6-46s7,4,14,6s17,12,35,16s28,11,31,19s11,2-4,16s-17,18-17,18s18,5,28-3s2-6,17-2s22,10,24,19
		s9,18,20,0s7-5,11-24s-7-32-18-45s8-21,38-23s57-9,64-10s6-4,15,9s13,12,1,17s-21,11-28,22s-18,20-21,45s-12,30-11,40s14-6,19,2
		s-5,6,5,8s3-12,17,4s14,21,19,21s11-5,13,3s4,17,10,20s9,31,5,3s-7-29-7-34s0-36,0-36l15-15c0,0,9.5-3,11.5,9s0.25,18,4.25,36
		s-0.875,24,1.125,35s11.063,15,11.063,15l3.031,10l2.016,4l11.008-6l23.004,4c0,0,7.004,17,24.004,10s18-5,24-7s17,0,5-23
		s-29-92-29-102s1-73-7-85s-3-4,3-19s13-23,17-48s16-37,1-76s-28-60-28-60s6-7,19-12s20-7,26-10s16-18,6-21s-21-6-28-4s-8,8-22,11
		s-24,9-24,9s-24-28-23-31s-12,3-18-18s-13-34-14-40s-11-23-11-23"/>
	<path fill="none" stroke="#665955" stroke-width="4" stroke-miterlimit="10" d="M179.19,623.798
		c3.571-21.429,10.714-35.714,14.285-57.143s7.143-16.071,8.929-33.929s28.429-32.071,24.929-56.214"/>
	<path fill="#FFFFFF" stroke="#FFFFFF" stroke-miterlimit="10" d="M276.333,406.513c-8,6,1-17,4-27s32-13,32-13l28,9c0,0-4,0-4,12
		s-9,19,4,17s14-14,13-2s-1,14,4,28s6,14,13,18s9-1,14,1s-7,9,3,12s0,6,10,3s26-12,22-6s-13,7-15,12s-11,14,7,11s21-5,17,1
		s1,4-13,13s-23,11-23,11s8,4,10,9s10,5,5,9s-10-5-5,4s5,1,12,12s18,14,15,17s-1,9-14,3s-11-10-17-14s-6-2-8-12s3-21-6-7
		s-8,20-16,30s0,1-11,18s-7,27-20,27s-3,5-17-7s-4-13-14-12s-19,13-22,15s3,6-8,4s-3,26-14-10s-11-39-21-41s5,0-14-4s-12-6-23-4
		s-14,11-16,0s-9-12,1-16s19-2,17-6s11,5-5-12s-10,7-16-17s3-25,4-29s6-13,14-8s17,16,24,21s8,16,15,12s15-5,13-17s-6-16-10-21
		s-13-17-2-26s15-10,15-10s-4-14-4-19s22,7,23,16S276.333,406.513,276.333,406.513z"/>
	<path fill="#949089" stroke="#665955" stroke-width="4" stroke-miterlimit="10" d="M328.333,2.013c0,0-24.5,2-40,8
		s-31.5,15-36.5,14.5s-47-6-64-1s-37.5,17.5-41,22s-20,59-19,86s-7,66-2.5,73.5s14,7,22.5,3.5s18.5-12,18.5-12s0.5,3,0.5,10
		s4.5,43.5,12,55.5s17,25,22,35s14.5,16.5,12.5,22s-1.5,18,2.5,23s38,35,56.5,36s59.5,6.5,71,6s86-8,96-14.5s24.5-22.5,27.5-33
		s1-26-1-28.5s-1-8.5-1-8.5s13-35.5,21-52s11-19.5,11-19.5s7.5,3.5,15.5,1s14,1,13.5-11.5s1.5-131-5.5-142s-21.5-31-34-34
		s-36.5-9-50.5-9s-16-0.5-28.5-7.5s-45.5-21-59-21.5S328.333,2.013,328.333,2.013z"/>
	<path fill="#D7D1D8" stroke="#665955" stroke-width="2" stroke-miterlimit="10" d="M60.667,742.179c0,0-31.667,13.667-34,18.667
		s2.667,9.333,2.667,9.333s33-14.666,39-15.666s3.333-3,3.333-3"/>
	<path fill="#D7D1D8" stroke="#665955" stroke-width="2" stroke-miterlimit="10" d="M30,768.846c0,0-18,10.667-19,14
		s-0.332,20.333,4.334,22.333s11.666,3.666,13.333,3S48.666,780.847,67,777.513"/>
	<path fill="#D7D1D8" stroke="#665955" stroke-width="2" stroke-miterlimit="10" d="M29,806.846c0,0,4.333,15.334,11,17.667
		s15.334,6,23.667,2s33.667-30,33.667-30l3.666-5"/>
	<path fill="#D7D1D8" d="M10,791.179"/>
	<path fill="#D7D1D8" stroke="#665955" stroke-width="2" stroke-miterlimit="10" d="M405.667,755.847c0,0-8.666,27.333-14.666,34
		s-22.334-8-26-14.667s16.333-45,16.333-45"/>
	<path fill="#D7D1D8" stroke="#665955" stroke-width="2" stroke-miterlimit="10" d="M411.667,811.18
		c10.667-3.333,12.001,4.668,17.334-7.666s10-13.668,10-23.334s0.666-15.666,0.666-15.666"/>
	<path fill="#D7D1D8" stroke="#665955" stroke-width="2" stroke-miterlimit="10" d="M447.001,830.18c9-9.333,6-0.666,9.333-17.333
		s6.999-18,6.333-23s-2-9-2-9"/>
	<path fill="#D7D1D8" stroke="#665955" stroke-width="2" stroke-miterlimit="10" d="M501.877,853.092
		c-3,4.5-15.001,31.498-16.5,38.998s1.957,18.423,15.456,18.423s17.542-9.423,23.542-12.423s9-22.499,9-22.499"/>
	<path fill="#D7D1D8" stroke="#665955" stroke-width="2" stroke-miterlimit="10" d="M598.371,860.592c0,0,4.501,31.499,10.5,40.498
		s14.462,14.923,21.962,7.423s-3.963-29.922-3.963-29.922"/>
	<path fill="#D7D1D8" stroke="#665955" stroke-width="2" stroke-miterlimit="10" d="M532.333,869.013c0,0-10.042,22.923-9.5,31
		c1.232,18.362,21,15.5,21,15.5c13,1,8-2.5,10.541-7.423c8.811-17.068,11.999-18,13.499-26.999s3-17.999,3-17.999"/>
	<path fill="#D7D1D8" stroke="#665955" stroke-width="2" stroke-miterlimit="10" d="M566,888.846c0,0-7.167,30.667,1.833,29.167
		s20,9.5,29-2.5s3.5-43,3.5-43"/>
	<path fill="#B58A9B" d="M412.667,803.514c0,0-7,0.001-11-0.333s-9.333-0.334-9.333-0.334s-4-2.334-2.667,4s5.001,16,8.667,16.667
		s8,1.999,9.333,2.333S417,829.848,420,830.181s17.666,2,19,2s3.667,0,2.667-2.667S439,819.848,437,817.181s-6.666-4.333-7.666-4
		s-8.334,0.333-9.667-1.667S412.667,803.514,412.667,803.514z"/>
	<path fill="#B58A9B" d="M368,776.847c3,0,6.668-1.332,8.334-0.666s6.334-4.667,9-4.667s9.667,3.334,9,6.667s-3,5.666-6.667,10.666
		s-4.667,9.666-8,11s-2.666,7-6.333,0s-6.667-10.332-6.667-13.666s-1-6-1-6L368,776.847z"/>
	<path fill="#BBAEB5" d="M11,790.846c0,0-11,8-11,11s2,8.333,2,8.333l0.667-3.333c0,0,1-2.999,5-4.333s6.667-0.334,6.667-0.334"/>
	<path fill="#BBAEB5" d="M28.667,808.179c0,0-6.666,5.667-6.333,10.667s-0.334,8,1.333,9s1.667,1,1.667,1s-0.333-2,1-4
		s1.667-3.333,3-3.333s5.333-1.334,5.333-1.334"/>
	<path fill="#BBAEB5" d="M83.667,827.179c0,0-3.001,7.333-1.667,11s5,7.667,5,7.667s0-0.333,1-4s1.334-5.334,5.667-7.667
		s2-2.666,2-2.666"/>
	<path fill="#BBAEB5" d="M167.667,777.846c1.333,2,5.001,5.666,6.667,8.333s4.666,4.334,6.333,4.667s2.667-3,2.667-3
		s-1.666,1.334-4-0.333s-4.333-3.334-4-5.334s-0.334-6.667-1.667-9"/>
	<path fill="#BBAEB5" d="M264.334,699.179c-1,2-1.667,5.334,0.333,8.667s4.001,6.333,5.667,6.333s2.333,0.238,2.333-2.333
		s0.667-2.999,0.667-8.333s-0.668-7-2.334-6.667S264.334,699.179,264.334,699.179z"/>
	<path fill="#BBAEB5" d="M232.667,727.846c-1,3.667-1.667,5.333-0.667,9s3.334,6,3.334,6l2.333-3.667l2-2.666
		c0,0,4.001-6.334,1.667-7.667s-6.667-2-6.667-2L232.667,727.846z"/>
	<path fill="#BBAEB5" d="M223.667,737.179L219,738.513l-1,2c0,0-0.666,6,1.334,8s4.333,1.333,4.333,1.333s-0.333-1,0-3
		S223,743.513,225,741.513S223.667,737.179,223.667,737.179z"/>
	<path fill="#BBAEB5" d="M217.334,754.513c0,0,3,6.666,4,6.666s-0.666-4.666,0-5.666S217.334,754.513,217.334,754.513z"/>
	<path fill="#BBAEB5" d="M384.667,773.179c0,0-0.666,8-4.666,11s-1.667,6.667-1.667,6.667l6.333-4.667c0,0,7.334-4.332,7.334-7.666
		S384.667,773.179,384.667,773.179z"/>
	<path fill="#BBAEB5" d="M414.001,801.846c0,0,0.333,10.667,0.333,13s4.333-1.333,4.333-1.333s4.667-5.001,4.667-7.334
		s2.999-3.666-0.667-4.333s-6.333-1.667-6.333-1.667L414.001,801.846z"/>
	<path fill="#BBAEB5" d="M433.334,809.513c0,0-0.999,13.166-0.333,14.833s-0.334-0.417,3.666-3.417s3.666-3.207,5-5.874
		s-2.333-5.542-2.333-5.542H433.334z"/>
	<path fill="#BBAEB5" d="M454.001,812.179c0,0,3.666,13.668,2.333,15.334s1.667-3.667,3-4.667s1.333-7.667,1.333-7.667s2-6.334-1-7
		S454.001,812.179,454.001,812.179z"/>
	<path fill="#BBAEB5" d="M482.334,846.846c0,0-8,10-9,11s-1,3.667-1,3.667s-1,3.333,6.333-1.667s8-6.667,8-6.667L482.334,846.846z"
		/>
	<path fill="#B58A9B" d="M263.833,725.513c-5.5,1-10,5.5-13,5.5s-9.5-0.5-9.5-0.5s-0.5,9,5,11s9,5,16,4s12,1,12-5.5s1-9-2-11.5
		S263.833,725.513,263.833,725.513z"/>
	<path fill="#B58A9B" d="M289.833,699.513c-3.5,1-8-0.5-10.5,3s-6.5,8.5-2,11.5s6,8.5,14,5.5s9-0.5,10.5-7.5s2.5-8.5-2.5-10.5
		S289.833,699.513,289.833,699.513z"/>
	<path fill="#B58A9B" d="M243.333,749.013c-5.5-2-7.5-11-11-10s-7,9.5-4,14s-1.5,12.5,12.5,12.5s19.5-2,17-6s-7-7.5-9-8
		S243.333,749.013,243.333,749.013z"/>
	<path fill="#D7D1D8" stroke="#665955" stroke-width="2" stroke-miterlimit="10" d="M85,807.179l3,3.334
		c0,0-9.666,13.333-3.666,18.333s19.666,8,26.666,6s49.667-43.667,49.667-43.667"/>
	<g>
		<path fill="#665955" d="M165.333,198.513c0,0,6.334-11.333,8-23.667s3.666-13.333,0.333-22.333s-9.999-3-8.333-19.333
			s-0.333-12.667,6-28s20.334-33.667,25-38.667s5,0,10-13.333s-1.668-12.667,8.666-14.667s24.666-6,30-8.333s9.666-4.666,1-6.333
			S233,20.179,216.333,20.179s-21.333,1.334-33,4.667s-29,12.333-36,20.667s-21.667,67-21.667,83.333s-2,58.666-2,67.333
			s1.333,14,4.333,15.667s9.668,3.333,17.334,0.333S165.333,198.513,165.333,198.513z"/>
		<path fill="#665955" d="M496.333,225.513c8,3,14.5,3.5,19,2s9,2,9-6s0.5-25,1-33s1-57-0.5-61.5s0-24-2.5-33s-3-24.5-7-28.5
			s-16.5-17.5-20.5-21s-23-9.5-33.5-10.5s-24-2-26.5-1.5s-11,0-11,0s18.5,13,30,17s16,17.5,20.5,24.5s10.5,25.5,12.5,36.5
			s7.5,25,4,39s-8,17-5,31s5,20.5,7,29.5S496.333,225.513,496.333,225.513z"/>
		<g>
			<g>
				<ellipse fill="#77ADDD" cx="239" cy="173.846" rx="17" ry="14.667"/>
				<ellipse fill="#77ADDD" cx="446" cy="177.846" rx="17" ry="14.667"/>
				<path fill="#EDD7E3" d="M249.078,192.337c-5.892,0-16.624-0.248-22.305-1.905c-8.249-2.406-14.765-4.307-16.714-12.101
					c-0.356-1.425-0.81-2.721-1.248-3.974c-1.465-4.186-3.125-8.931,3.701-12.002c7.055-3.175,24.637-6.167,27.954-6.5
					c3.61-0.361,6.759,1.681,7.58,2.276c7.74,3.9,22.67,24.309,23.791,26.926c0.474,1.105,1.123,2.619,0.238,4.09
					c-0.947,1.575-3.031,2.229-8.577,2.691C259.813,192.146,254.287,192.337,249.078,192.337z M241.328,159.813
					c-0.153,0-0.308,0.007-0.463,0.023c-3.462,0.346-20.476,3.361-26.712,6.167c-3.362,1.513-3.146,2.521-1.566,7.034
					c0.446,1.276,0.952,2.722,1.354,4.324c1.333,5.332,5.47,6.757,13.952,9.232c3.857,1.125,11.381,1.745,21.186,1.745
					c6.104,0,11.28-0.25,14.089-0.484c3.137-0.261,4.551-0.552,5.188-0.757c-0.066-0.167-0.14-0.338-0.192-0.461
					c-0.893-1.999-15.654-21.951-22.021-24.982l-0.368-0.227C245.758,161.414,243.636,159.813,241.328,159.813z"/>
				<path fill="#EDD7E3" d="M440.186,196.703c-3.743,0-6.982-0.305-9.629-0.906c-1.871-0.425-3.517-0.716-4.969-0.974
					c-4.376-0.774-7.832-1.386-8.242-5.089c-0.368-3.316,0.927-7.658,1.076-8.142l0.122-0.307
					c1.281-2.562,12.857-25.053,24.668-25.768c0.674-0.041,1.337-0.061,1.987-0.061c12.049,0,19.357,6.554,21.941,9.372
					c0.709,0.773,1.391,1.413,2.05,2.031c2.69,2.523,5.015,4.702,3.05,10.923c-0.42,1.33-0.666,2.741-0.926,4.235
					c-0.877,5.032-1.967,11.294-11.33,12.804C452.241,196.07,445.579,196.703,440.186,196.703z M422.199,182.92
					c-0.359,1.229-1.103,4.351-0.879,6.372c0.073,0.659,1.569,0.991,4.964,1.592c1.497,0.265,3.194,0.565,5.159,1.012
					c5.897,1.34,15.359,0.999,27.904-1.024c6.548-1.056,7.168-4.615,8.026-9.541c0.271-1.558,0.552-3.169,1.052-4.753
					c1.206-3.821,0.47-4.512-1.972-6.801c-0.681-0.638-1.451-1.36-2.263-2.245c-1.736-1.895-8.238-8.075-18.992-8.075
					c-0.571,0-1.153,0.017-1.745,0.053C435.438,159.995,425.475,176.423,422.199,182.92z"/>
				<g>
					<path fill="#2F4357" d="M242.333,174.923c0,1.982-1.883,3.59-4,3.59l0,0c-2.117,0-4-1.607-4-3.59v-4.487
						c0-1.982,1.883-3.59,4-3.59l0,0c2.117,0,4,1.607,4,3.59V174.923z"/>
					<path fill="#2F4357" d="M451.333,177.013c0,1.933-1.567,3.5-3.5,3.5h-5c-1.933,0-3.5-1.567-3.5-3.5v-1
						c0-1.933,1.567-3.5,3.5-3.5h5c1.933,0,3.5,1.567,3.5,3.5V177.013z"/>
					<path opacity="0.5" fill="#E7FFFF" d="M249.333,171.18c0,1.289-1.045,2.333-2.333,2.333h-0.334
						c-1.288,0-2.333-1.044-2.333-2.333v-1.334c0-1.289,1.045-2.333,2.333-2.333H247c1.288,0,2.333,1.044,2.333,2.333V171.18z"/>
					<path opacity="0.5" fill="#E7FFFF" d="M438.333,174.18c0,1.289-1.045,2.333-2.333,2.333h-0.334
						c-1.288,0-2.333-1.044-2.333-2.333v-1.334c0-1.289,1.045-2.333,2.333-2.333H436c1.288,0,2.333,1.044,2.333,2.333V174.18z"/>
				</g>
			</g>
			<path fill="#B9A3A7" d="M306.333,277.179c-0.667,14,1.999,52.667,5.333,60.667s4.666,20,20,26s28,10.667,44.667,2
				s3.334-2,12.667-35.333s14.666-25.333,8.666-52.667s-2-38-20-39.333s-11.333-10.667-31.333-1.333s-31.999,10-33.333,18.667
				S306.333,277.179,306.333,277.179z"/>
			<g>
				<path fill="#B9A3A7" d="M313.419,353.998c12.039,6.676,27.423,18.544,39.462,16.319c12.039-2.226,36.117-11.868,36.117-11.868"
					/>
				<path fill="#998675" d="M349.806,372.257c-9.303,0-19.834-6.413-29.246-12.144c-2.747-1.672-5.342-3.253-7.813-4.623
					l1.347-2.986c2.523,1.399,5.143,2.995,7.916,4.683c10.124,6.164,21.61,13.146,30.624,11.482
					c11.769-2.175,35.615-11.696,35.854-11.792l1.022,3.139c-0.988,0.396-24.346,9.72-36.381,11.945
					C352.042,372.163,350.932,372.257,349.806,372.257z"/>
			</g>
			<path fill="#665955" d="M369.287,384.152c-2.166,0-4.439,1.861-6.854,1.714c-2.852-0.174-5.801,1.646-9.101,1.646
				c-7.891,0-16.081-0.345-22.663-0.623c-4.802-0.203-8.948-1.377-11.837-1.377c-8.181,0-20.617-17.292-23.248-22.029l3.496-1.942
				c2.583,4.649,14.117,19.971,19.752,19.971c2.973,0,7.158,1.176,12.006,1.381c6.544,0.276,14.688,0.619,22.494,0.619
				c3.422,0,6.568,0.192,9.344,0.361c8.398,0.51,13.949-3.149,19.339-7.866c4.896-4.283,8.672-8.402,11.171-11.127
				c1.92-2.094,2.8-3.04,3.537-3.531l2.219,3.328c-0.379,0.259-1.613,1.605-2.808,2.907c-2.558,2.79-6.425,7.006-11.484,11.435
				C379.86,383.209,374.938,384.152,369.287,384.152z"/>
			<path fill="#665955" d="M265.931,374.999c-5.075,0-9.392-2.707-15.36-6.45c-2.761-1.73-5.889-3.692-9.699-5.782
				c-15.854-8.694-22.548-16.382-28.753-26.725c-4.146-6.908-4.892-10.747-5.924-16.059c-0.525-2.703-1.121-5.767-2.287-9.931
				c-2.577-9.204-4.305-12.844-6.696-17.881c-0.794-1.672-1.693-3.568-2.705-5.845c-2.391-5.379-9.011-16.218-14.852-25.782
				c-3.812-6.241-7.411-12.136-9.573-16.067c-5.088-9.25-3.425-32.999-2.531-45.758c0.12-1.718,0.224-3.185,0.286-4.317l3.994,0.222
				c-0.063,1.147-0.168,2.633-0.29,4.375c-0.803,11.469-2.475,35.333,2.045,43.551c2.119,3.852,5.696,9.708,9.483,15.91
				c6.192,10.14,12.596,20.625,15.092,26.242c0.992,2.232,1.843,4.023,2.664,5.755c2.477,5.217,4.266,8.986,6.935,18.519
				c1.21,4.319,1.821,7.468,2.361,10.245c0.99,5.095,1.645,8.46,5.428,14.765c5.853,9.754,12.188,17.017,27.247,25.275
				c3.913,2.146,7.094,4.141,9.9,5.9c8.191,5.137,11.93,7.48,18.85,4.515c2.187-0.937,5.307-2.308,9.002-3.933
				c14.533-6.387,36.496-16.04,47.674-19.633c3.402-1.094,6.126-2.354,8.76-3.571c7.949-3.677,14.229-6.582,29.651,0.142
				c8.737,3.809,15.939,8.435,22.294,12.517c7.952,5.108,14.819,9.52,22.259,10.848c13.854,2.473,21.564,3.391,31.926-4.614
				c12.746-9.849,20.694-22.446,21.026-22.978c0.12-0.191,0.23-0.359,0.332-0.507c-0.549-2.017-1.132-7.089-0.635-21.501
				c0.313-9.047,0.184-14.837,0.091-19.066c-0.21-9.463-0.248-11.168,5.107-22.236c3.224-6.662,8.351-14.858,13.309-22.785
				c6.48-10.36,13.182-21.073,14.547-26.808l3.891,0.927c-1.517,6.372-8.089,16.878-15.046,28.002
				c-4.901,7.836-9.97,15.939-13.099,22.406c-4.937,10.201-4.91,11.363-4.71,20.406c0.094,4.276,0.224,10.132-0.092,19.292
				c-0.606,17.567,0.469,20.33,0.593,20.587c0.538,0.89,0.407,1.9-0.339,2.639c-0.051,0.051-0.207,0.205-0.557,0.765
				c-3.162,5.06-11.349,15.813-21.974,24.022c-11.654,9.005-20.922,7.913-35.074,5.386c-8.226-1.469-15.405-6.081-23.718-11.42
				c-6.228-4-13.286-8.534-21.729-12.215c-13.776-6.004-18.787-3.687-26.374-0.178c-2.615,1.209-5.58,2.58-9.215,3.749
				c-10.981,3.53-33.71,13.519-47.289,19.487c-3.71,1.63-6.841,3.007-9.035,3.947C270.453,374.494,268.121,374.999,265.931,374.999z
				"/>
			<g>
				<ellipse fill="#2F4357" cx="338.5" cy="289.013" rx="6.833" ry="7.167"/>
				<ellipse fill="#2F4357" cx="368.333" cy="288.346" rx="7" ry="6.833"/>
				<path fill="#8E6F68" d="M331.333,257.513c-0.431,0.144-0.865,0.291-1.301,0.442c-5.629,1.96-11.461,4.679-12.699,10.558
					c-1.334,6.333-2,12.667-0.667,17s4.333,2.667,6.333,10s0.666,13.667,2,15.333s4.667,1.333,4.667,1.333s49,1,51-1.333
					s5.999-10.667,7.333-17s4.666-10.333,4-16s-6.333-16.333-11.333-19.333s-11.667-6.667-16-6"/>
				<g>
					<path fill="#D7D1D8" d="M333.666,262.846c3-5.333,1-8,2-15s0.334-10-1.333-13.333s2.334-1.667,4.667,2s5.666,7.667,8.666,12
						s11,4,12,10.333"/>
					<path fill="#D7D1D8" stroke="#333333" stroke-miterlimit="10" d="M352,257.846c0,0-10.333-0.667-17,3.333s-6.333,2-8,7.667
						s-4.667,10.333-3.667,16s0.667,7,5.667,8s7,2.667,6-0.667s-1-7.667,3-7.333s5-2.333,4.333,3.333s1.999,5.333-2.667,8.667
						s-6.332,2.667-6.666,11.667s-3.333,14.334,1,20.667s3,7.667,8,11s8.333,3,8.333,3l0.063-1.012L353,300.513
						c0,0-4.666,48.333,5,42s14.999-13.666,15.666-22.333s-3.667-11.667-5-17.333s-6.667-9.667-4-12.667s0.334-5.333,4.667-5
						s5.334-2,4.667,2s-6,7,0,6.333s9.666-1,10.333-5.667s-0.001-9.333-1.667-14.333s0.668-10-6.666-11.667
						s-10.001-4.333-15.334-4.333S352,257.846,352,257.846z"/>
					<path fill="#D7D1D8" d="M352,257.846c0,0-10.333-0.667-17,3.333s-6.333,2-8,7.667s-4.667,10.333-3.667,16s0.667,7,5.667,8
						s7,2.667,6-0.667s-1-7.667,3-7.333s5-2.333,4.333,3.333s1.999,5.333-2.667,8.667s-6.332,2.667-6.666,11.667
						s-3.333,14.334,1,20.667s3,7.667,8,11s8.333,3,8.333,3l0.063-1.012L353,300.513c0,0-4.666,48.333,5,42
						s14.999-13.666,15.666-22.333s-3.667-11.667-5-17.333s-6.667-9.667-4-12.667s0.334-5.333,4.667-5s5.334-2,4.667,2s-6,7,0,6.333
						s9.666-1,10.333-5.667s-0.001-9.333-1.667-14.333s0.668-10-6.666-11.667s-10.001-4.333-15.334-4.333S352,257.846,352,257.846z"
						/>
				</g>
			</g>
			<path fill="none" stroke="#665955" stroke-width="4" stroke-miterlimit="10" d="M265.931,374.999
				c0,0,60.902,14.514,80.402,13.014s80.5-15,88.5-19.5"/>
			<g opacity="0.5">
				<ellipse fill="#4D4545" cx="262.667" cy="288.512" rx="3" ry="3.333"/>
				<ellipse fill="#4D4545" cx="269.667" cy="294.512" rx="3" ry="3.333"/>
				<ellipse fill="#4D4545" cx="263.667" cy="307.512" rx="3" ry="3.333"/>
				<ellipse fill="#4D4545" cx="261.667" cy="325.512" rx="3" ry="3.333"/>
				<ellipse fill="#4D4545" cx="277.667" cy="300.512" rx="3" ry="3.333"/>
				<ellipse fill="#4D4545" cx="275.667" cy="312.512" rx="3" ry="3.333"/>
				<ellipse fill="#4D4545" cx="280.667" cy="331.512" rx="3" ry="3.333"/>
				<ellipse fill="#4D4545" cx="267.667" cy="339.512" rx="3" ry="3.333"/>
				<ellipse fill="#4D4545" cx="276.667" cy="341.512" rx="3" ry="3.333"/>
				<ellipse fill="#4D4545" cx="291.667" cy="332.512" rx="3" ry="3.333"/>
				<ellipse fill="#4D4545" cx="302.667" cy="332.512" rx="3" ry="3.333"/>
				<g>
					<ellipse fill="#4D4545" cx="399.667" cy="335.512" rx="3" ry="3.333"/>
					<ellipse fill="#4D4545" cx="408.667" cy="328.512" rx="3" ry="3.333"/>
					<ellipse fill="#4D4545" cx="408.667" cy="336.512" rx="3" ry="3.333"/>
					<ellipse fill="#4D4545" cx="418.667" cy="339.512" rx="3" ry="3.333"/>
					<ellipse fill="#4D4545" cx="416.667" cy="332.512" rx="3" ry="3.333"/>
					<ellipse fill="#4D4545" cx="414.667" cy="349.512" rx="3" ry="3.333"/>
					<ellipse fill="#4D4545" cx="403.667" cy="347.512" rx="3" ry="3.333"/>
					<ellipse fill="#4D4545" cx="426.667" cy="333.512" rx="3" ry="3.333"/>
					<ellipse fill="#4D4545" cx="416.667" cy="323.512" rx="3" ry="3.333"/>
					<ellipse fill="#4D4545" cx="404.667" cy="320.512" rx="3" ry="3.333"/>
					<ellipse fill="#4D4545" cx="438.667" cy="310.512" rx="3" ry="3.333"/>
					<ellipse fill="#4D4545" cx="429.667" cy="307.512" rx="3" ry="3.333"/>
					<ellipse fill="#4D4545" cx="422.667" cy="304.512" rx="3" ry="3.333"/>
					<ellipse fill="#4D4545" cx="412.667" cy="301.512" rx="3" ry="3.333"/>
					<ellipse fill="#4D4545" cx="408.667" cy="312.512" rx="3" ry="3.333"/>
					<ellipse fill="#4D4545" cx="422.667" cy="315.512" rx="3" ry="3.333"/>
					<ellipse fill="#4D4545" cx="433.667" cy="330.512" rx="3" ry="3.333"/>
					<ellipse fill="#4D4545" cx="425.667" cy="323.512" rx="3" ry="3.333"/>
					<ellipse fill="#4D4545" cx="439.667" cy="326.512" rx="3" ry="3.333"/>
					<ellipse fill="#4D4545" cx="433.667" cy="319.512" rx="3" ry="3.333"/>
				</g>
				<ellipse fill="#4D4545" cx="286.667" cy="347.512" rx="3" ry="3.333"/>
				<ellipse fill="#4D4545" cx="279.667" cy="351.512" rx="3" ry="3.333"/>
				<ellipse fill="#4D4545" cx="271.667" cy="350.512" rx="3" ry="3.333"/>
				<ellipse fill="#4D4545" cx="262.667" cy="347.512" rx="3" ry="3.333"/>
				<ellipse fill="#4D4545" cx="255.667" cy="342.512" rx="3" ry="3.333"/>
				<ellipse fill="#4D4545" cx="248.667" cy="336.512" rx="3" ry="3.333"/>
				<ellipse fill="#4D4545" cx="242.667" cy="328.512" rx="3" ry="3.333"/>
				<ellipse fill="#4D4545" cx="270.667" cy="329.512" rx="3" ry="3.333"/>
				<ellipse fill="#4D4545" cx="268.667" cy="320.512" rx="3" ry="3.333"/>
				<ellipse fill="#4D4545" cx="283.667" cy="319.512" rx="3" ry="3.333"/>
				<ellipse fill="#4D4545" cx="284.667" cy="305.512" rx="3" ry="3.333"/>
				<ellipse fill="#4D4545" cx="256.667" cy="303.512" rx="3" ry="3.333"/>
				<ellipse fill="#4D4545" cx="253.667" cy="321.512" rx="3" ry="3.333"/>
				<ellipse fill="#4D4545" cx="244.667" cy="313.512" rx="3" ry="3.333"/>
			</g>
			<path fill="#C0C2C0" d="M236.333,118.513c-12,2-24,8-26,12s-12,15-15,23s-4,14-4,17s5-2,6-5s2-7,10-15s5-10,11-13s15-11,15-11
				L236.333,118.513z"/>
			<path fill="#C0C2C0" d="M447.333,122.513c6,5,9,6,13,10s12,5,12,13s5,16,6,27c0.183,2.01,0.398,3.987,0.617,5.924
				c0.98,8.664,2.018,16.538,0.383,23.076c-2,8,4,29,4,29l1-27l-7-51c0,0-3-22-10-22s-18-14-18-14L447.333,122.513z"/>
			<path fill="#8D827E" d="M248.333,149.846c3,3.667,8.667,5.333,11,8s9,5.333,9,10.667s-6,31-6,33.333s-7.334,11.667-0.667,9.333
				s14-7.667,18-13.333s9.667-9.333,10.667-18.333s0.333-16.333-2.667-20.667s-14.666-15-25.333-17.333s-14.667,1.667-14.667,2.667
				S248.333,149.846,248.333,149.846z"/>
			<path fill="#C0C2C0" d="M277.001,150.846c0.666-4,3-6.333,1-13.667s0.999-9.667-3.334-16.333s-5.334-3.667-9-9
				s-2.999-15.333-3.666-5.333s-5.666,15-3,25.333s4.334,13,8,17.667s5.666,8,7.333,8.667S277.001,150.846,277.001,150.846z"/>
			<path fill="#8D827E" d="M414.666,162.846c1.334-1.667,13-8,15.667-9.333s9.333,3,1.333-5s-18.333-15.333-21.333-14.667
				s-6.334,12.333-6.667,15.667S406,161.847,408,163.18S414.666,162.846,414.666,162.846z"/>
			<path fill="#8D827E" d="M406.333,187.513c2,5.333,12,17,14,19.667s10,10,10,10s-0.333-6.667-2-8.333s-5.334-7.667-5.667-11
				s-2.667-6-4-6.333s-2.666,1.333-5.333,0.333S406.333,187.513,406.333,187.513z"/>
			<path fill="#C0C2C0" d="M408.001,151.846c4.666-6,2-6.333,5.333-17s0.667-8.667,6.667-16s13.333-11.333,13.333-8.333
				s1.666,3,0.333,9.333s3,12.333-2,19.333s-6.666,13.333-11.666,14.333S408.001,151.846,408.001,151.846z"/>
		</g>
	</g>
	<path fill="none" stroke="#665955" stroke-width="4" stroke-miterlimit="10" d="M560.118,584.763c0,0-19.748-58.839-23.32-69.554
		s-5.465,9.018-5.465-24.911s0-46.786,0-46.786s14.715-1.429,0.429-37.143s-8.93-25-23.215-51.786s-19.643-37.5-19.643-37.5"/>
	<path fill="none" stroke="#665955" stroke-width="4" stroke-miterlimit="10" d="M488.119,709.274
		c-5.357-14.048-7.144-12.262-19.644-42.619c-12.5-30.357-10.713-14.285-17.856-44.643c-7.144-30.357-8.929-33.928-14.286-42.857
		s-12.5-17.857-12.5-17.857"/>
</g>
</svg>
